# xmcd CD database file
#
# Track frame offsets:
#	182
#	20667
#	41850
#	62425
#	76672
#	99272
#	112835
#	130957
#
# Disc length: 1987 seconds
#
# Revision: 0
# Processed by: cddbd v1.5.1PL0 Copyright (c) Steve Scherf et al.
# Submitted via: CDex 1.51
#
DISCID=5907c108
DTITLE=Miguel Moly - Siempre, siempre
DYEAR=1993
DGENRE=Merengue
TTITLE0=Siempre, siempre
TTITLE1=Lloré
TTITLE2=La catira
TTITLE3=Tengo que escaparme
TTITLE4=Mamita mia
TTITLE5=Ines María
TTITLE6=Que bonito
TTITLE7=El bailon
EXTD=YEAR: 1993
EXTT0=
EXTT1=
EXTT2=
EXTT3=
EXTT4=
EXTT5=
EXTT6=
EXTT7=
PLAYORDER=
